<svg width="25" height="26" viewBox="0 0 25 26" fill="none" xmlns="http://www.w3.org/2000/svg">
<g id="Google">
<path id="Intersect" d="M1.50739 18.5387L5.71155 15.3237C5.47116 14.5936 5.34118 13.8125 5.34118 13C5.34118 12.1875 5.47116 11.4064 5.71155 10.6763L1.50739 7.46133C0.687422 9.1284 0.227539 11.0079 0.227539 13C0.227539 14.9921 0.687422 16.8716 1.50739 18.5387Z" fill="#FBBC05"/>
<path id="Intersect_2" d="M5.71197 10.6763C6.68197 7.73008 9.44953 5.61364 12.728 5.61364C14.4893 5.61364 16.0802 6.23864 17.3302 7.26136L20.9666 3.625C18.7507 1.69318 15.9098 0.5 12.728 0.5C7.78826 0.5 3.54103 3.32762 1.50781 7.46133L5.71197 10.6763Z" fill="#EA4335"/>
<path id="Subtract" d="M12.7277 25.5C7.78662 25.5 3.53841 22.6708 1.50586 18.5352L5.70831 15.3134C6.67521 18.2649 9.44542 20.3864 12.7277 20.3864C14.3338 20.3864 15.7569 20.0081 16.8839 19.2969L20.8751 22.3869C18.6903 24.4183 15.7766 25.5 12.7277 25.5Z" fill="#34A853"/>
<path id="Intersect_3" d="M12.7275 10.7273H24.3753C24.5457 11.4659 24.6594 12.2614 24.6594 13C24.6594 17.0741 23.1689 20.254 20.875 22.3868L16.8837 19.2969C18.1887 18.4733 19.0967 17.2032 19.4321 15.5568H12.7275V10.7273Z" fill="#4285F4"/>
</g>
</svg>
